<mxfile host="app.diagrams.net" modified="2023-02-15T03:26:25.186Z" agent="5.0 (Windows NT 10.0; Win64; x64) AppleWebKit/537.36 (KHTML, like Gecko) Chrome/110.0.0.0 Safari/537.36" etag="H9h0a3AWy9fgDcUrEjLi" version="20.8.20" type="github">
  <diagram name="페이지-1" id="uDJoiG9algmf2NQn5Tnr">
    <mxGraphModel dx="1593" dy="876" grid="1" gridSize="10" guides="1" tooltips="1" connect="1" arrows="1" fold="1" page="1" pageScale="1" pageWidth="827" pageHeight="1169" math="0" shadow="0">
      <root>
        <mxCell id="0" />
        <mxCell id="1" parent="0" />
        <mxCell id="CuC0xupn7Pqgi-vXpx9m-2" value="이용자" style="shape=umlActor;verticalLabelPosition=bottom;verticalAlign=top;html=1;outlineConnect=0;fontStyle=1;strokeWidth=2;" vertex="1" parent="1">
          <mxGeometry x="20" y="120" width="60" height="110" as="geometry" />
        </mxCell>
        <mxCell id="CuC0xupn7Pqgi-vXpx9m-6" value="게시판 서비스" style="shape=umlFrame;whiteSpace=wrap;html=1;pointerEvents=0;width=180;height=30;fontSize=13;strokeWidth=2;fontStyle=1" vertex="1" parent="1">
          <mxGeometry x="210" y="60" width="780" height="680" as="geometry" />
        </mxCell>
        <mxCell id="CuC0xupn7Pqgi-vXpx9m-38" style="rounded=0;orthogonalLoop=1;jettySize=auto;html=1;exitX=0;exitY=0.5;exitDx=0;exitDy=0;entryX=1;entryY=0.3333333333333333;entryDx=0;entryDy=0;entryPerimeter=0;fontSize=13;endArrow=none;endFill=0;" edge="1" parent="1" source="CuC0xupn7Pqgi-vXpx9m-9" target="CuC0xupn7Pqgi-vXpx9m-2">
          <mxGeometry relative="1" as="geometry" />
        </mxCell>
        <mxCell id="CuC0xupn7Pqgi-vXpx9m-9" value="회원가입" style="rounded=1;whiteSpace=wrap;html=1;arcSize=40;fontColor=#000000;fillColor=#ffffc0;strokeColor=#ff0000;strokeWidth=2;fontSize=13;" vertex="1" parent="1">
          <mxGeometry x="300" y="210" width="140" height="70" as="geometry" />
        </mxCell>
        <mxCell id="CuC0xupn7Pqgi-vXpx9m-39" style="edgeStyle=none;rounded=0;orthogonalLoop=1;jettySize=auto;html=1;exitX=0;exitY=0.5;exitDx=0;exitDy=0;fontSize=13;endArrow=none;endFill=0;" edge="1" parent="1" source="CuC0xupn7Pqgi-vXpx9m-11">
          <mxGeometry relative="1" as="geometry">
            <mxPoint x="80" y="160" as="targetPoint" />
          </mxGeometry>
        </mxCell>
        <mxCell id="CuC0xupn7Pqgi-vXpx9m-46" style="edgeStyle=none;rounded=0;orthogonalLoop=1;jettySize=auto;html=1;exitX=1;exitY=0.5;exitDx=0;exitDy=0;entryX=0.5;entryY=1;entryDx=0;entryDy=0;dashed=1;strokeColor=default;fontSize=13;endArrow=classic;endFill=1;" edge="1" parent="1" source="CuC0xupn7Pqgi-vXpx9m-11" target="CuC0xupn7Pqgi-vXpx9m-13">
          <mxGeometry relative="1" as="geometry" />
        </mxCell>
        <mxCell id="CuC0xupn7Pqgi-vXpx9m-11" value="게시판 보기" style="rounded=1;whiteSpace=wrap;html=1;arcSize=40;fontColor=#000000;fillColor=#ffffc0;strokeColor=#ff0000;strokeWidth=2;fontSize=13;" vertex="1" parent="1">
          <mxGeometry x="300" y="380" width="140" height="70" as="geometry" />
        </mxCell>
        <mxCell id="CuC0xupn7Pqgi-vXpx9m-40" style="edgeStyle=none;rounded=0;orthogonalLoop=1;jettySize=auto;html=1;exitX=0;exitY=0.5;exitDx=0;exitDy=0;entryX=1;entryY=0.3333333333333333;entryDx=0;entryDy=0;entryPerimeter=0;fontSize=13;endArrow=none;endFill=0;" edge="1" parent="1" source="CuC0xupn7Pqgi-vXpx9m-12" target="CuC0xupn7Pqgi-vXpx9m-2">
          <mxGeometry relative="1" as="geometry" />
        </mxCell>
        <mxCell id="CuC0xupn7Pqgi-vXpx9m-47" style="edgeStyle=none;rounded=0;orthogonalLoop=1;jettySize=auto;html=1;exitX=1;exitY=0.25;exitDx=0;exitDy=0;entryX=0.5;entryY=1;entryDx=0;entryDy=0;dashed=1;strokeColor=default;fontSize=13;endArrow=classic;endFill=1;" edge="1" parent="1" source="CuC0xupn7Pqgi-vXpx9m-12" target="CuC0xupn7Pqgi-vXpx9m-13">
          <mxGeometry relative="1" as="geometry" />
        </mxCell>
        <mxCell id="CuC0xupn7Pqgi-vXpx9m-12" value="게시글 보기" style="rounded=1;whiteSpace=wrap;html=1;arcSize=40;fontColor=#000000;fillColor=#ffffc0;strokeColor=#ff0000;strokeWidth=2;fontSize=13;" vertex="1" parent="1">
          <mxGeometry x="290" y="590" width="140" height="70" as="geometry" />
        </mxCell>
        <mxCell id="CuC0xupn7Pqgi-vXpx9m-41" style="edgeStyle=none;rounded=0;orthogonalLoop=1;jettySize=auto;html=1;exitX=0;exitY=0.5;exitDx=0;exitDy=0;entryX=1;entryY=0.3333333333333333;entryDx=0;entryDy=0;entryPerimeter=0;fontSize=13;endArrow=none;endFill=0;" edge="1" parent="1" source="CuC0xupn7Pqgi-vXpx9m-13" target="CuC0xupn7Pqgi-vXpx9m-2">
          <mxGeometry relative="1" as="geometry" />
        </mxCell>
        <mxCell id="CuC0xupn7Pqgi-vXpx9m-42" style="edgeStyle=none;rounded=0;orthogonalLoop=1;jettySize=auto;html=1;exitX=1;exitY=0.5;exitDx=0;exitDy=0;entryX=0;entryY=0.5;entryDx=0;entryDy=0;fontSize=13;endArrow=classic;endFill=1;strokeColor=default;dashed=1;" edge="1" parent="1" source="CuC0xupn7Pqgi-vXpx9m-13" target="CuC0xupn7Pqgi-vXpx9m-14">
          <mxGeometry relative="1" as="geometry" />
        </mxCell>
        <mxCell id="CuC0xupn7Pqgi-vXpx9m-44" value="&amp;lt;&amp;lt;include&amp;gt;&amp;gt;" style="edgeLabel;html=1;align=center;verticalAlign=middle;resizable=0;points=[];fontSize=13;" vertex="1" connectable="0" parent="CuC0xupn7Pqgi-vXpx9m-42">
          <mxGeometry relative="1" as="geometry">
            <mxPoint as="offset" />
          </mxGeometry>
        </mxCell>
        <mxCell id="CuC0xupn7Pqgi-vXpx9m-13" value="회원 로그인" style="rounded=1;whiteSpace=wrap;html=1;arcSize=40;fontColor=#000000;fillColor=#ffffc0;strokeColor=#ff0000;strokeWidth=2;fontSize=13;" vertex="1" parent="1">
          <mxGeometry x="430" y="100" width="140" height="70" as="geometry" />
        </mxCell>
        <mxCell id="CuC0xupn7Pqgi-vXpx9m-57" style="edgeStyle=none;rounded=0;orthogonalLoop=1;jettySize=auto;html=1;exitX=1;exitY=0.5;exitDx=0;exitDy=0;entryX=0;entryY=0.5;entryDx=0;entryDy=0;strokeColor=default;fontSize=13;endArrow=none;endFill=0;" edge="1" parent="1" source="CuC0xupn7Pqgi-vXpx9m-14" target="CuC0xupn7Pqgi-vXpx9m-54">
          <mxGeometry relative="1" as="geometry" />
        </mxCell>
        <mxCell id="CuC0xupn7Pqgi-vXpx9m-14" value="인증" style="rounded=1;whiteSpace=wrap;html=1;arcSize=40;fontColor=#000000;fillColor=#ffffc0;strokeColor=#ff0000;strokeWidth=2;fontSize=13;" vertex="1" parent="1">
          <mxGeometry x="710" y="100" width="140" height="70" as="geometry" />
        </mxCell>
        <mxCell id="CuC0xupn7Pqgi-vXpx9m-43" style="edgeStyle=none;rounded=0;orthogonalLoop=1;jettySize=auto;html=1;exitX=0;exitY=0.5;exitDx=0;exitDy=0;entryX=1;entryY=0.5;entryDx=0;entryDy=0;fontSize=13;endArrow=classic;endFill=1;dashed=1;" edge="1" parent="1" source="CuC0xupn7Pqgi-vXpx9m-15" target="CuC0xupn7Pqgi-vXpx9m-13">
          <mxGeometry relative="1" as="geometry" />
        </mxCell>
        <mxCell id="CuC0xupn7Pqgi-vXpx9m-45" value="&amp;lt;&amp;lt;extend&amp;gt;&amp;gt;" style="edgeLabel;html=1;align=center;verticalAlign=middle;resizable=0;points=[];fontSize=13;" vertex="1" connectable="0" parent="CuC0xupn7Pqgi-vXpx9m-43">
          <mxGeometry relative="1" as="geometry">
            <mxPoint as="offset" />
          </mxGeometry>
        </mxCell>
        <mxCell id="CuC0xupn7Pqgi-vXpx9m-15" value="로그인 실패" style="rounded=1;whiteSpace=wrap;html=1;arcSize=40;fontColor=#000000;fillColor=#ffffc0;strokeColor=#ff0000;strokeWidth=2;fontSize=13;" vertex="1" parent="1">
          <mxGeometry x="710" y="210" width="140" height="70" as="geometry" />
        </mxCell>
        <mxCell id="CuC0xupn7Pqgi-vXpx9m-49" style="edgeStyle=none;rounded=0;orthogonalLoop=1;jettySize=auto;html=1;exitX=0;exitY=0.5;exitDx=0;exitDy=0;dashed=1;strokeColor=default;fontSize=13;endArrow=classic;endFill=1;" edge="1" parent="1" source="CuC0xupn7Pqgi-vXpx9m-16">
          <mxGeometry relative="1" as="geometry">
            <mxPoint x="440" y="420" as="targetPoint" />
          </mxGeometry>
        </mxCell>
        <mxCell id="CuC0xupn7Pqgi-vXpx9m-58" style="edgeStyle=none;rounded=0;orthogonalLoop=1;jettySize=auto;html=1;exitX=1;exitY=0.25;exitDx=0;exitDy=0;strokeColor=default;fontSize=13;endArrow=none;endFill=0;" edge="1" parent="1" source="CuC0xupn7Pqgi-vXpx9m-12">
          <mxGeometry relative="1" as="geometry">
            <mxPoint x="1100.0000000000005" y="280" as="targetPoint" />
            <Array as="points">
              <mxPoint x="460" y="600" />
              <mxPoint x="800" y="480" />
            </Array>
          </mxGeometry>
        </mxCell>
        <mxCell id="CuC0xupn7Pqgi-vXpx9m-16" value="게시판 검색" style="rounded=1;whiteSpace=wrap;html=1;arcSize=40;fontColor=#000000;fillColor=#ffffc0;strokeColor=#ff0000;strokeWidth=2;fontSize=13;" vertex="1" parent="1">
          <mxGeometry x="590" y="430" width="140" height="70" as="geometry" />
        </mxCell>
        <mxCell id="CuC0xupn7Pqgi-vXpx9m-48" style="edgeStyle=none;rounded=0;orthogonalLoop=1;jettySize=auto;html=1;exitX=0;exitY=0.5;exitDx=0;exitDy=0;entryX=1;entryY=0.5;entryDx=0;entryDy=0;dashed=1;strokeColor=default;fontSize=13;endArrow=classic;endFill=1;" edge="1" parent="1" source="CuC0xupn7Pqgi-vXpx9m-18" target="CuC0xupn7Pqgi-vXpx9m-11">
          <mxGeometry relative="1" as="geometry" />
        </mxCell>
        <mxCell id="CuC0xupn7Pqgi-vXpx9m-61" style="edgeStyle=none;rounded=0;orthogonalLoop=1;jettySize=auto;html=1;exitX=1;exitY=0.5;exitDx=0;exitDy=0;strokeColor=default;fontSize=13;endArrow=none;endFill=0;" edge="1" parent="1" source="CuC0xupn7Pqgi-vXpx9m-18">
          <mxGeometry relative="1" as="geometry">
            <mxPoint x="1100.0000000000005" y="280" as="targetPoint" />
          </mxGeometry>
        </mxCell>
        <mxCell id="CuC0xupn7Pqgi-vXpx9m-18" value="게시판 정렬" style="rounded=1;whiteSpace=wrap;html=1;arcSize=40;fontColor=#000000;fillColor=#ffffc0;strokeColor=#ff0000;strokeWidth=2;fontSize=13;" vertex="1" parent="1">
          <mxGeometry x="590" y="350" width="140" height="70" as="geometry" />
        </mxCell>
        <mxCell id="CuC0xupn7Pqgi-vXpx9m-50" style="edgeStyle=none;rounded=0;orthogonalLoop=1;jettySize=auto;html=1;exitX=0;exitY=0.5;exitDx=0;exitDy=0;entryX=1;entryY=0.5;entryDx=0;entryDy=0;dashed=1;strokeColor=default;fontSize=13;endArrow=classic;endFill=1;" edge="1" parent="1" source="CuC0xupn7Pqgi-vXpx9m-19" target="CuC0xupn7Pqgi-vXpx9m-12">
          <mxGeometry relative="1" as="geometry" />
        </mxCell>
        <mxCell id="CuC0xupn7Pqgi-vXpx9m-59" style="edgeStyle=none;rounded=0;orthogonalLoop=1;jettySize=auto;html=1;exitX=1;exitY=0.5;exitDx=0;exitDy=0;strokeColor=default;fontSize=13;endArrow=none;endFill=0;" edge="1" parent="1" source="CuC0xupn7Pqgi-vXpx9m-19">
          <mxGeometry relative="1" as="geometry">
            <mxPoint x="1100.0000000000005" y="280" as="targetPoint" />
          </mxGeometry>
        </mxCell>
        <mxCell id="CuC0xupn7Pqgi-vXpx9m-19" value="게시글 쓰기, 수정, 삭제" style="rounded=1;whiteSpace=wrap;html=1;arcSize=40;fontColor=#000000;fillColor=#ffffc0;strokeColor=#ff0000;strokeWidth=2;fontSize=13;" vertex="1" parent="1">
          <mxGeometry x="590" y="560" width="140" height="70" as="geometry" />
        </mxCell>
        <mxCell id="CuC0xupn7Pqgi-vXpx9m-51" style="edgeStyle=none;rounded=0;orthogonalLoop=1;jettySize=auto;html=1;exitX=0;exitY=0.5;exitDx=0;exitDy=0;dashed=1;strokeColor=default;fontSize=13;endArrow=classic;endFill=1;" edge="1" parent="1" source="CuC0xupn7Pqgi-vXpx9m-20">
          <mxGeometry relative="1" as="geometry">
            <mxPoint x="430" y="630" as="targetPoint" />
          </mxGeometry>
        </mxCell>
        <mxCell id="CuC0xupn7Pqgi-vXpx9m-60" style="edgeStyle=none;rounded=0;orthogonalLoop=1;jettySize=auto;html=1;exitX=1;exitY=0.5;exitDx=0;exitDy=0;strokeColor=default;fontSize=13;endArrow=none;endFill=0;" edge="1" parent="1" source="CuC0xupn7Pqgi-vXpx9m-20">
          <mxGeometry relative="1" as="geometry">
            <mxPoint x="1100.0000000000005" y="280" as="targetPoint" />
          </mxGeometry>
        </mxCell>
        <mxCell id="CuC0xupn7Pqgi-vXpx9m-20" value="댓글 보기, 쓰기, 수정, 삭제" style="rounded=1;whiteSpace=wrap;html=1;arcSize=40;fontColor=#000000;fillColor=#ffffc0;strokeColor=#ff0000;strokeWidth=2;fontSize=13;" vertex="1" parent="1">
          <mxGeometry x="590" y="650" width="140" height="70" as="geometry" />
        </mxCell>
        <mxCell id="CuC0xupn7Pqgi-vXpx9m-54" value="DB" style="html=1;dropTarget=0;strokeWidth=2;fontSize=13;" vertex="1" parent="1">
          <mxGeometry x="1100" y="240" width="90" height="80" as="geometry" />
        </mxCell>
        <mxCell id="CuC0xupn7Pqgi-vXpx9m-56" style="edgeStyle=none;rounded=0;orthogonalLoop=1;jettySize=auto;html=1;exitX=1;exitY=0.5;exitDx=0;exitDy=0;dashed=1;strokeColor=default;fontSize=13;endArrow=classic;endFill=1;" edge="1" parent="1" source="CuC0xupn7Pqgi-vXpx9m-15" target="CuC0xupn7Pqgi-vXpx9m-15">
          <mxGeometry relative="1" as="geometry" />
        </mxCell>
        <mxCell id="CuC0xupn7Pqgi-vXpx9m-62" style="edgeStyle=none;rounded=0;orthogonalLoop=1;jettySize=auto;html=1;exitX=1;exitY=0.25;exitDx=0;exitDy=0;entryX=1;entryY=0.5;entryDx=0;entryDy=0;strokeColor=default;fontSize=13;endArrow=none;endFill=0;" edge="1" parent="1" source="CuC0xupn7Pqgi-vXpx9m-12" target="CuC0xupn7Pqgi-vXpx9m-12">
          <mxGeometry relative="1" as="geometry" />
        </mxCell>
      </root>
    </mxGraphModel>
  </diagram>
</mxfile>
